<svg xmlns="http://www.w3.org/2000/svg" width="806" height="67" fill="none"><path fill="#fff" d="M25.92 66.87c-4.98 0-9.42-1.02-13.32-3.06-3.9-2.1-6.99-5.04-9.27-8.82C1.11 51.21 0 46.71 0 41.49V2.7h16.83v39.06c0 1.98.36 3.75 1.08 5.31.78 1.5 1.83 2.7 3.15 3.6 1.38.9 3 1.35 4.86 1.35 1.86 0 3.48-.45 4.86-1.35a8.72 8.72 0 0 0 3.15-3.6c.72-1.56 1.08-3.33 1.08-5.31V2.7h17.01v39.06c0 1.98.36 3.75 1.08 5.31a8.72 8.72 0 0 0 3.15 3.6c1.38.9 3 1.35 4.86 1.35 1.86 0 3.45-.45 4.77-1.35a8.72 8.72 0 0 0 3.15-3.6c.78-1.56 1.17-3.33 1.17-5.31V2.7h16.74v38.79c0 5.22-1.11 9.72-3.33 13.5-2.22 3.78-5.28 6.72-9.18 8.82-3.84 2.04-8.28 3.06-13.32 3.06-2.4 0-4.68-.27-6.84-.81s-4.14-1.32-5.94-2.34a22.58 22.58 0 0 1-4.86-3.69 27.263 27.263 0 0 1-4.86 3.69c-1.8 1.02-3.78 1.8-5.94 2.34-2.1.54-4.35.81-6.75.81ZM165.741 65.7c-5.22 0-9.84-.93-13.86-2.79-3.96-1.86-7.11-4.53-9.45-8.01-2.28-3.48-3.42-7.59-3.42-12.33 0-5.28 1.11-9.72 3.33-13.32 2.22-3.6 5.16-6.33 8.82-8.19 3.66-1.86 7.59-2.79 11.79-2.79 4.56 0 8.49.96 11.79 2.88 3.36 1.86 5.94 4.5 7.74 7.92 1.86 3.42 2.79 7.41 2.79 11.97 0 .96-.06 2.07-.18 3.33-.06 1.2-.21 2.22-.45 3.06h-29.43c.36 1.32.93 2.43 1.71 3.33.84.84 1.92 1.47 3.24 1.89 1.38.42 2.94.63 4.68.63h15.3V65.7h-14.4Zm-11.07-27.36h15.84c0-.9-.12-1.71-.36-2.43-.24-.78-.57-1.5-.99-2.16-.42-.66-.93-1.23-1.53-1.71s-1.32-.84-2.16-1.08c-.84-.24-1.74-.36-2.7-.36-1.26 0-2.37.21-3.33.63-.96.42-1.77.99-2.43 1.71-.66.66-1.2 1.47-1.62 2.43-.36.9-.6 1.89-.72 2.97ZM237.575 65.7V0h15.57v65.7h-15.57ZM330.672 65.7c-4.8 0-9.09-.99-12.87-2.97-3.78-1.98-6.75-4.71-8.91-8.19-2.16-3.48-3.24-7.47-3.24-11.97 0-4.5 1.08-8.49 3.24-11.97 2.16-3.54 5.13-6.3 8.91-8.28 3.78-1.98 8.07-2.97 12.87-2.97h8.01v12.96h-7.02c-2.1 0-3.93.45-5.49 1.35-1.56.9-2.76 2.13-3.6 3.69-.84 1.56-1.26 3.3-1.26 5.22s.42 3.69 1.26 5.31c.84 1.56 2.04 2.79 3.6 3.69 1.56.9 3.39 1.35 5.49 1.35h7.02V65.7h-8.01ZM414.35 66.78c-4.68 0-8.94-1.02-12.78-3.06-3.78-2.1-6.81-4.98-9.09-8.64-2.28-3.66-3.42-7.86-3.42-12.6 0-4.68 1.14-8.85 3.42-12.51 2.28-3.66 5.34-6.51 9.18-8.55 3.84-2.1 8.1-3.15 12.78-3.15s8.91 1.05 12.69 3.15c3.84 2.04 6.87 4.89 9.09 8.55 2.28 3.66 3.42 7.83 3.42 12.51 0 4.74-1.14 8.94-3.42 12.6-2.22 3.66-5.25 6.54-9.09 8.64-3.78 2.04-8.04 3.06-12.78 3.06Zm0-13.86c1.92 0 3.6-.45 5.04-1.35 1.5-.9 2.64-2.13 3.42-3.69.78-1.62 1.17-3.42 1.17-5.4 0-2.04-.39-3.84-1.17-5.4a8.822 8.822 0 0 0-3.42-3.69c-1.44-.9-3.12-1.35-5.04-1.35s-3.6.45-5.04 1.35c-1.44.9-2.58 2.13-3.42 3.69-.78 1.56-1.17 3.36-1.17 5.4 0 1.98.39 3.78 1.17 5.4.84 1.56 1.98 2.79 3.42 3.69 1.44.9 3.12 1.35 5.04 1.35ZM492.018 65.7V38.52c0-4.02.9-7.53 2.7-10.53 1.86-3.06 4.44-5.43 7.74-7.11 3.3-1.74 7.23-2.61 11.79-2.61 2.28 0 4.38.24 6.3.72 1.98.42 3.75 1.05 5.31 1.89 1.62.84 3 1.8 4.14 2.88h.18c1.2-1.08 2.58-2.04 4.14-2.88 1.56-.84 3.3-1.47 5.22-1.89 1.98-.48 4.11-.72 6.39-.72 4.62 0 8.58.87 11.88 2.61 3.36 1.68 5.94 4.05 7.74 7.11 1.8 3 2.7 6.51 2.7 10.53V65.7h-15.57l-.09-26.46c0-1.32-.3-2.52-.9-3.6a7.006 7.006 0 0 0-2.52-2.61c-1.08-.66-2.37-.99-3.87-.99-1.44 0-2.73.33-3.87.99a7.757 7.757 0 0 0-2.61 2.61c-.6 1.08-.9 2.28-.9 3.6V65.7h-15.57V39.24c0-1.32-.33-2.52-.99-3.6-.6-1.08-1.47-1.95-2.61-2.61-1.08-.66-2.37-.99-3.87-.99-1.38 0-2.64.33-3.78.99a7.757 7.757 0 0 0-2.61 2.61c-.6 1.08-.9 2.28-.9 3.6V65.7h-15.57ZM647.382 65.7c-5.22 0-9.84-.93-13.86-2.79-3.96-1.86-7.11-4.53-9.45-8.01-2.28-3.48-3.42-7.59-3.42-12.33 0-5.28 1.11-9.72 3.33-13.32 2.22-3.6 5.16-6.33 8.82-8.19 3.66-1.86 7.59-2.79 11.79-2.79 4.56 0 8.49.96 11.79 2.88 3.36 1.86 5.94 4.5 7.74 7.92 1.86 3.42 2.79 7.41 2.79 11.97 0 .96-.06 2.07-.18 3.33-.06 1.2-.21 2.22-.45 3.06h-29.43c.36 1.32.93 2.43 1.71 3.33.84.84 1.92 1.47 3.24 1.89 1.38.42 2.94.63 4.68.63h15.3V65.7h-14.4Zm-11.07-27.36h15.84c0-.9-.12-1.71-.36-2.43-.24-.78-.57-1.5-.99-2.16-.42-.66-.93-1.23-1.53-1.71s-1.32-.84-2.16-1.08c-.84-.24-1.74-.36-2.7-.36-1.26 0-2.37.21-3.33.63-.96.42-1.77.99-2.43 1.71-.66.66-1.2 1.47-1.62 2.43-.36.9-.6 1.89-.72 2.97ZM789.024 43.92V2.7h14.94v41.22h-14.94Zm7.47 22.95c-2.46 0-4.56-.9-6.3-2.7-1.74-1.8-2.61-3.93-2.61-6.39 0-2.46.87-4.56 2.61-6.3 1.74-1.8 3.84-2.7 6.3-2.7 2.52 0 4.65.9 6.39 2.7 1.8 1.74 2.7 3.84 2.7 6.3 0 1.62-.42 3.12-1.26 4.5a9.072 9.072 0 0 1-3.24 3.33c-1.38.84-2.91 1.26-4.59 1.26Z"/></svg>