<svg fill="none" xmlns="http://www.w3.org/2000/svg">
  <defs>
    <symbol id="twitter-icon-path">
      <path d="M17.72 44.5C36.58 44.5 46.9 28.136 46.9 13.9693C46.9 13.5089 46.9 13.0486 46.88 12.5882C48.88 
      11.0606 50.62 9.1773 52 7.04287C50.12 7.90082 48.14 8.48675 46.1 8.73785C48.24 7.39862 49.84 5.2851 50.6 2.79495C48.58 4.0505 46.38 
      4.92937 44.08 5.38975C40.2 1.0581 33.7 0.848849 29.56 4.92937C26.9 7.5451 25.76 11.4582 26.6 15.183C18.38 14.7435 10.68 10.663 5.48 
      3.96677C2.76 8.86342 4.14 15.1411 8.66 18.28C7.02 18.2382 5.44 17.7777 4 16.9407V17.0662C4 22.1722 7.44 26.5665 12.24 27.592C10.72 
      28.0315 9.14 28.0943 7.6 27.7803C8.94 32.1538 12.8 35.1462 17.18 35.23C13.54 38.2222 9.06 39.8335 4.44 39.8335C3.62 39.8335 2.8 
      39.7708 2 39.687C6.7 42.8468 12.14 44.5 17.72 44.5Z" 
      stroke="#FF0000" stroke-opacity="0.5" stroke-width="3" stroke-linecap="round" stroke-linejoin="round"/>
    </symbol>

    <symbol id="menu-icon-path">
      <rect y="0" width="50" height="10"/>
      <rect y="22.5" width="50" height="10"/>
      <rect y="45" width="50" height="10"/>
    </symbol>
  </defs>
</svg>
