<svg fill="none" xmlns="http://www.w3.org/2000/svg">
  <defs>
    <symbol viewBox="0 0 50 55" id="menu-icon">
      <rect y="0" width="50" height="10"/>
      <rect y="22.5" width="50" height="10"/>
      <rect y="45" width="50" height="10"/>
    </symbol>

    <symbol viewBox="0 0 900 75" id="welcome-page-logo">
      <path fill="#fff" d="M28.958 74.707c-5.564 0-10.524-1.14-14.881-3.418-4.357-2.346-7.81-5.631-10.357-9.854C1.24 57.212 0 52.185 0 46.353V3.016h18.802v43.638c0 2.212.403 4.19 1.207 5.933.872 1.675 2.045 3.016 3.52 4.022 1.541 1.005 3.35 1.508 5.429 1.508 2.078 0 3.888-.503 5.43-1.508a9.742 9.742 0 0 0 3.519-4.022c.804-1.743 1.206-3.72 1.206-5.933V3.016h19.004v43.638c0 2.212.402 4.19 1.206 5.933a9.742 9.742 0 0 0 3.52 4.022c1.541 1.005 3.351 1.508 5.43 1.508 2.077 0 3.854-.503 5.328-1.508a9.742 9.742 0 0 0 3.52-4.022c.87-1.743 1.307-3.72 1.307-5.933V3.016H97.13v43.337c0 5.831-1.24 10.859-3.72 15.082-2.48 4.223-5.9 7.508-10.257 9.854-4.29 2.279-9.25 3.418-14.88 3.418-2.682 0-5.23-.301-7.642-.905-2.414-.603-4.626-1.474-6.637-2.614a25.227 25.227 0 0 1-5.43-4.122 30.455 30.455 0 0 1-5.429 4.122c-2.01 1.14-4.223 2.011-6.636 2.614-2.346.604-4.86.905-7.541.905ZM185.167 73.4c-5.832 0-10.994-1.039-15.485-3.117-4.424-2.078-7.943-5.06-10.557-8.949-2.548-3.888-3.821-8.48-3.821-13.775 0-5.898 1.24-10.859 3.72-14.88 2.48-4.023 5.765-7.073 9.854-9.15 4.089-2.079 8.479-3.118 13.172-3.118 5.094 0 9.485 1.073 13.171 3.218 3.754 2.078 6.637 5.027 8.648 8.848 2.078 3.82 3.117 8.279 3.117 13.373 0 1.072-.067 2.313-.202 3.72-.067 1.34-.234 2.48-.502 3.419h-32.88c.403 1.475 1.039 2.715 1.911 3.72.938.939 2.145 1.642 3.62 2.112 1.541.469 3.284.704 5.228.704h17.093V73.4h-16.087Zm-12.368-30.567h17.697c0-1.005-.134-1.91-.403-2.714a9.85 9.85 0 0 0-1.106-2.413 7.766 7.766 0 0 0-1.709-1.91c-.67-.537-1.475-.94-2.413-1.207a10.934 10.934 0 0 0-3.016-.403c-1.408 0-2.648.235-3.721.704-1.072.47-1.977 1.106-2.715 1.91-.737.738-1.34 1.643-1.809 2.715-.403 1.006-.671 2.112-.805 3.319ZM265.419 73.4V0h17.395v73.4h-17.395ZM369.427 73.4c-5.362 0-10.155-1.106-14.378-3.318-4.223-2.212-7.541-5.262-9.954-9.15-2.413-3.888-3.62-8.345-3.62-13.373 0-5.027 1.207-9.485 3.62-13.373 2.413-3.954 5.731-7.038 9.954-9.25 4.223-2.212 9.016-3.318 14.378-3.318h8.949v14.479h-7.842c-2.347 0-4.391.502-6.134 1.508-1.743 1.006-3.083 2.38-4.022 4.123-.938 1.742-1.408 3.686-1.408 5.831 0 2.145.47 4.123 1.408 5.933.939 1.742 2.279 3.117 4.022 4.122 1.743 1.006 3.787 1.508 6.134 1.508h7.842V73.4h-8.949ZM462.913 74.607c-5.229 0-9.988-1.14-14.278-3.419-4.223-2.346-7.608-5.564-10.155-9.653-2.547-4.088-3.821-8.78-3.821-14.076 0-5.229 1.274-9.888 3.821-13.976 2.547-4.09 5.966-7.273 10.256-9.552 4.29-2.347 9.049-3.52 14.278-3.52 5.228 0 9.954 1.173 14.177 3.52 4.29 2.279 7.675 5.463 10.155 9.552 2.547 4.089 3.821 8.747 3.821 13.976 0 5.295-1.274 9.987-3.821 14.076-2.48 4.09-5.865 7.307-10.155 9.653-4.223 2.28-8.982 3.419-14.278 3.419Zm0-15.485c2.145 0 4.022-.502 5.631-1.508a9.864 9.864 0 0 0 3.821-4.122c.871-1.81 1.307-3.821 1.307-6.033 0-2.28-.436-4.29-1.307-6.033a9.865 9.865 0 0 0-3.821-4.123c-1.609-1.005-3.486-1.508-5.631-1.508s-4.022.503-5.631 1.508c-1.608 1.006-2.882 2.38-3.821 4.123-.871 1.743-1.307 3.754-1.307 6.033 0 2.212.436 4.223 1.307 6.033.939 1.742 2.213 3.117 3.821 4.122 1.609 1.006 3.486 1.508 5.631 1.508ZM549.684 73.4V43.035c0-4.491 1.005-8.413 3.016-11.764 2.078-3.42 4.961-6.067 8.647-7.944 3.687-1.944 8.078-2.916 13.172-2.916 2.547 0 4.894.268 7.039.805 2.212.469 4.189 1.173 5.932 2.111 1.81.939 3.351 2.011 4.625 3.218h.201c1.341-1.207 2.883-2.28 4.625-3.218 1.743-.938 3.687-1.642 5.832-2.111 2.212-.537 4.592-.805 7.139-.805 5.162 0 9.586.972 13.273 2.916 3.753 1.877 6.636 4.525 8.647 7.943 2.011 3.352 3.016 7.274 3.016 11.765V73.4h-17.395l-.1-29.561c0-1.475-.335-2.815-1.006-4.022a7.828 7.828 0 0 0-2.815-2.916c-1.207-.737-2.648-1.106-4.324-1.106-1.608 0-3.05.369-4.323 1.106a8.66 8.66 0 0 0-2.916 2.916c-.67 1.207-1.006 2.547-1.006 4.022V73.4h-17.394V43.84c0-1.475-.369-2.815-1.106-4.022-.671-1.206-1.643-2.178-2.916-2.916-1.207-.737-2.648-1.106-4.324-1.106-1.542 0-2.949.369-4.223 1.106a8.66 8.66 0 0 0-2.916 2.916c-.67 1.207-1.005 2.547-1.005 4.022V73.4h-17.395ZM723.257 73.4c-5.832 0-10.994-1.039-15.485-3.117-4.424-2.078-7.943-5.06-10.557-8.949-2.548-3.888-3.821-8.48-3.821-13.775 0-5.898 1.24-10.859 3.72-14.88 2.48-4.023 5.765-7.073 9.854-9.15 4.089-2.079 8.479-3.118 13.172-3.118 5.094 0 9.485 1.073 13.172 3.218 3.753 2.078 6.636 5.027 8.647 8.848 2.078 3.82 3.117 8.279 3.117 13.373 0 1.072-.067 2.313-.201 3.72-.067 1.34-.235 2.48-.503 3.419h-32.879c.402 1.475 1.039 2.715 1.91 3.72.938.939 2.145 1.642 3.62 2.112 1.541.469 3.284.704 5.228.704h17.093V73.4h-16.087Zm-12.368-30.567h17.697c0-1.005-.134-1.91-.402-2.714a9.925 9.925 0 0 0-1.106-2.413 7.77 7.77 0 0 0-1.71-1.91c-.67-.537-1.474-.94-2.413-1.207a10.934 10.934 0 0 0-3.016-.403c-1.408 0-2.648.235-3.721.704-1.072.47-1.977 1.106-2.714 1.91-.738.738-1.341 1.643-1.81 2.715-.403 1.006-.671 2.112-.805 3.319ZM881.499 49.068V3.016h16.691v46.052h-16.691Zm8.346 25.64c-2.749 0-5.095-1.006-7.039-3.017s-2.916-4.39-2.916-7.139c0-2.748.972-5.095 2.916-7.038 1.944-2.011 4.29-3.017 7.039-3.017 2.815 0 5.195 1.006 7.139 3.017 2.011 1.944 3.016 4.29 3.016 7.038 0 1.81-.469 3.486-1.408 5.027a10.136 10.136 0 0 1-3.619 3.72c-1.542.94-3.251 1.408-5.128 1.408Z"/>
    </symbol>

    <symbol viewBox="0 0 54 46" id="twitter-icon">
      <path stroke="red" stroke-linecap="round" stroke-linejoin="round" stroke-opacity=".5" stroke-width="2" d="M17.72 44.5c18.86 0 29.18-16.364 29.18-30.53 0-.461 0-.921-.02-1.382 2-1.527 3.74-3.41 5.12-5.545-1.88.858-3.86 1.444-5.9 1.695 2.14-1.34 3.74-3.453 4.5-5.943a19.644 19.644 0 0 1-6.52 2.595C40.2 1.058 33.7.849 29.56 4.93c-2.66 2.615-3.8 6.528-2.96 10.253-8.22-.44-15.92-4.52-21.12-11.216C2.76 8.863 4.14 15.14 8.66 18.28A9.716 9.716 0 0 1 4 16.94v.126c0 5.106 3.44 9.5 8.24 10.526-1.52.44-3.1.502-4.64.188 1.34 4.374 5.2 7.366 9.58 7.45-3.64 2.992-8.12 4.604-12.74 4.604-.82 0-1.64-.063-2.44-.147 4.7 3.16 10.14 4.813 15.72 4.813Z"/>
    </symbol>

    <symbol viewBox="0 0 54 54" id="linkedin-icon">
      <path stroke="red" stroke-linecap="round" stroke-linejoin="round" stroke-opacity=".5" stroke-width="2" d="M7 12A5 5 0 1 0 7 2a5 5 0 0 0 0 10Zm-5 7.5h10V52H2V19.5ZM22 52h10V34.5a5 5 0 1 1 10 0V52h10V34.5c0-8.284-6.716-15-15-15-8.284 0-15 6.716-15 15V52Z"/>
    </symbol>

    <symbol viewBox="0 0 54 54" id="instagram-icon">
      <g stroke="red" stroke-linecap="round" stroke-linejoin="round" stroke-opacity=".5" stroke-width="2"><path d="M2 12C2 6.477 6.477 2 12 2h30c5.523 0 10 4.477 10 10v30c0 5.523-4.477 10-10 10H12C6.477 52 2 47.523 2 42V12Z"/><path d="M27 38.111c6.137 0 11.111-4.974 11.111-11.11 0-6.137-4.974-11.112-11.11-11.112-6.137 0-11.112 4.975-11.112 11.111 0 6.137 4.975 11.111 11.111 11.111Zm15-26.057V12"/></g>
    </symbol>

    <symbol viewBox="0 0 54 43" id="discord-icon">
      <path stroke="#880909" stroke-linecap="round" stroke-linejoin="round" stroke-width="2" d="m17.587 35.28-2.69 5.38c-3.425-1.428-6.972-2.855-10.743-5.312a4.741 4.741 0 0 1-2.144-3.882C1.846 23.41 3.736 15.31 8.52 6.748c.626-1.12 1.67-1.942 2.88-2.372C14.288 3.351 16.248 2.559 19.604 2l2.017 3.698s2.017-.672 5.379-.672c3.361 0 5.379.672 5.379.672L34.396 2c3.356.56 5.316 1.351 8.203 2.376 1.21.43 2.253 1.251 2.88 2.372 4.785 8.563 6.675 16.662 6.511 24.718a4.743 4.743 0 0 1-2.144 3.882c-3.771 2.457-7.318 3.884-10.744 5.311l-2.69-5.378m-22.859-2.69S20.276 35.953 27 35.953c6.723 0 13.447-3.362 13.447-3.362"/><path fill="#880909" d="M19.832 27.861c1.73 0 3.134-1.613 3.134-3.602 0-1.99-1.403-3.602-3.134-3.602-1.73 0-3.133 1.613-3.133 3.602 0 1.99 1.403 3.602 3.133 3.602Zm16.785 0c1.73 0 3.133-1.613 3.133-3.602 0-1.99-1.403-3.602-3.133-3.602s-3.134 1.613-3.134 3.602c0 1.99 1.403 3.602 3.134 3.602Z"/>
    </symbol>
  </defs>
</svg>
